<svg xmlns="http://www.w3.org/2000/svg" width="1100" height="430" viewBox="0 0 1100 430">
<defs><linearGradient id="a" x1="0" x2="1"><stop stop-color="#00ADD8"/><stop offset="1" stop-color="#3FB950"/></linearGradient><filter id="gl"><feGaussianBlur stdDeviation="3" result="b"/><feMerge><feMergeNode in="b"/><feMergeNode in="SourceGraphic"/></feMerge></filter></defs>
<rect width="1100" height="430" rx="16" fill="#0D1117" stroke="#30363D"/>
<text x="35" y="38" fill="#F0F6FC" font-family="Inter,Arial" font-size="18" font-weight="700">INVOKECORDON · RUNTIME SECURITY PATH</text>
<text x="35" y="61" fill="#8B949E" font-family="Inter,Arial" font-size="12">Every tool call crosses a security boundary before reaching the MCP server.</text>
<g font-family="JetBrains Mono,Consolas,monospace" text-anchor="middle">
 <rect x="55" y="165" width="150" height="72" rx="9" fill="#161B22" stroke="#58A6FF"/><text x="130" y="194" fill="#58A6FF" font-size="14">AI CLIENT</text><text x="130" y="215" fill="#8B949E" font-size="10">MCP REQUEST</text>
 <rect x="365" y="125" width="370" height="152" rx="12" fill="#111820" stroke="url(#a)" stroke-width="2"/><text x="550" y="151" fill="#F0F6FC" font-size="15">INVOKECORDON</text>
 <g font-size="10"><rect x="395" y="171" width="135" height="32" rx="6" fill="#161B22" stroke="#D29922"/><text x="462" y="192" fill="#D29922">SCAN</text><rect x="570" y="171" width="135" height="32" rx="6" fill="#161B22" stroke="#A371F7"/><text x="637" y="192" fill="#A371F7">POLICY</text><rect x="395" y="220" width="135" height="32" rx="6" fill="#161B22" stroke="#F778BA"/><text x="462" y="241" fill="#F778BA">REDACT</text><rect x="570" y="220" width="135" height="32" rx="6" fill="#161B22" stroke="#3FB950"/><text x="637" y="241" fill="#3FB950">AUDIT</text></g>
 <rect x="895" y="165" width="150" height="72" rx="9" fill="#161B22" stroke="#3FB950"/><text x="970" y="194" fill="#3FB950" font-size="14">MCP SERVER</text><text x="970" y="215" fill="#8B949E" font-size="10">TOOL EXECUTION</text>
</g>
<g fill="none" stroke="#58A6FF" stroke-width="2" stroke-dasharray="12 10">
 <path d="M205 201H365"/><path d="M735 201H895"/>
</g>
<g fill="#58A6FF" filter="url(#gl)"><circle r="5"><animateMotion dur="2.1s" repeatCount="indefinite" path="M205 201H365"/></circle><circle r="5"><animateMotion dur="2.1s" begin="1.05s" repeatCount="indefinite" path="M735 201H895"/></circle></g>
<g font-family="JetBrains Mono,Consolas,monospace" font-size="11">
 <text x="55" y="330" fill="#8B949E">THREAT SURFACE</text><text x="55" y="355" fill="#C9D1D9">tool poisoning · prompt injection · secret leakage</text>
 <text x="575" y="330" fill="#8B949E">CONTROL PLANE</text><text x="575" y="355" fill="#C9D1D9">policy · validation · redaction · audit</text>
 <text x="575" y="385" fill="#8B949E">OBSERVABILITY</text><text x="575" y="407" fill="#C9D1D9">structured logs · Prometheus metrics</text>
</g>
</svg>